<svg xmlns="http://www.w3.org/2000/svg" viewBox="0 0 1500 1500"><path d="M299.997 315.003 425 377.503V465h-99.84c-16.775-39.709-25.163-88.567-25.163-149.997M599.987 465l50 25c50.01 25 50.01 75 50 100v12.494L562.5 533.75v-87.497zm100 250-100-50-49.99-25-100-50h174.955l75.035 37.494zM537.5 521.25 450 477.5v-87.497l87.5 43.749zM425 490l149.921 75H407.443c-29.313-20.387-52.629-44.695-69.946-75z" style="stroke-width:1;fill:#79a682" transform="translate(-250 -242.501)"/><path style="stroke:#000;stroke-width:0;fill:#376a45" d="m800 250.003 199.997 40 200.003-40V1070l550 275v200l-750-275-750 275v-200l550-275z" transform="translate(-250 -242.501)"/><path style="stroke-width:1;fill:#295236" d="M349.997 1645 1000 1370l650 275-120 90-530-165-530.003 165z" transform="translate(-250 -242.501)"/><path d="m699.982 1015-49.99-24.999-49.995-25-100-50h174.95l25.035 12.51zM349.997 640.003l125 62.498v87.5h-99.838c-16.775-39.71-25.162-88.56-25.162-149.998m299.995 149.998c50.005 25 50.005 75 49.99 100v12.49l-87.485-43.74v-87.5zm-62.495 56.25-87.5-43.75v-87.5l87.5 43.75zm-112.5-31.25 149.92 75H457.441c-29.313-20.38-52.628-44.69-69.945-75z" style="stroke-width:1;fill:#51875c" transform="translate(-250 -242.501)"/><path d="m1300 715 125.01-62.5v-87.497h-99.85C1308.39 604.712 1300 653.57 1300 715m299.99-149.997 50-25c50.01-25 50.01-75 50-100v-12.494l-137.48 68.744v87.497zm100-250-100 50-49.99 25-100 50h174.96l75.03-37.494zm-162.48 193.75-87.5 43.75V640l87.5-43.749zm-112.5 31.25 149.92-75h-167.48c-29.32 20.387-52.63 44.695-69.95 75z" style="stroke-width:1;fill:#79a682;transform-box:fill-box;transform-origin:50% 50%" transform="translate(-250 -242.501) scale(-1)"/><path d="m1649.98 640.003-49.99 24.99-49.99 25-100 50.002h174.95l25.03-12.512zM1300 1015l125-62.505v-87.5h-99.84c-16.78 39.71-25.16 88.56-25.16 150.005m299.99-150.005c50.01-25 50.01-75 49.99-100v-12.49l-87.48 43.74v87.5zm-62.49-56.25-87.5 43.75v87.5l87.5-43.75zm-112.5 31.25 149.92-75h-167.48c-29.31 20.38-52.63 44.69-69.94 75z" style="stroke-width:1;transform-box:fill-box;transform-origin:50% 50%;fill:#51875c" transform="translate(-250 -242.501) scale(-1)"/></svg>